<svg width="30" height="30" viewBox="0 0 30 30" fill="none" xmlns="http://www.w3.org/2000/svg">
<path d="M11.25 12.5V15H8.75V12.5H11.25ZM16.25 12.5V15H13.75V12.5H16.25ZM21.25 12.5V15H18.75V12.5H21.25ZM23.75 3.75C24.413 3.75 25.0489 4.01339 25.5178 4.48223C25.9866 4.95107 26.25 5.58696 26.25 6.25V23.75C26.25 24.413 25.9866 25.0489 25.5178 25.5178C25.0489 25.9866 24.413 26.25 23.75 26.25H6.25C5.58696 26.25 4.95107 25.9866 4.48223 25.5178C4.01339 25.0489 3.75 24.413 3.75 23.75V6.25C3.75 5.58696 4.01339 4.95107 4.48223 4.48223C4.95107 4.01339 5.58696 3.75 6.25 3.75H7.5V1.25H10V3.75H20V1.25H22.5V3.75H23.75ZM23.75 23.75V10H6.25V23.75H23.75ZM11.25 17.5V20H8.75V17.5H11.25ZM16.25 17.5V20H13.75V17.5H16.25ZM21.25 17.5V20H18.75V17.5H21.25Z" fill="#454545"/>
</svg>
