<svg width="24" height="24" viewBox="0 0 24 24" fill="none" xmlns="http://www.w3.org/2000/svg">
<path d="M11.9999 19.9987C7.58994 19.9987 3.99994 16.4087 3.99994 11.9987C3.99994 7.58872 7.58994 3.99872 11.9999 3.99872C16.4099 3.99872 19.9999 7.58872 19.9999 11.9987C19.9999 16.4087 16.4099 19.9987 11.9999 19.9987ZM11.9999 1.99872C10.6867 1.99872 9.38636 2.25738 8.1731 2.75992C6.95985 3.26247 5.85746 3.99906 4.92887 4.92765C3.05351 6.80301 1.99994 9.34655 1.99994 11.9987C1.99994 14.6509 3.05351 17.1944 4.92887 19.0698C5.85746 19.9984 6.95985 20.735 8.1731 21.2375C9.38636 21.7401 10.6867 21.9987 11.9999 21.9987C14.6521 21.9987 17.1956 20.9451 19.071 19.0698C20.9464 17.1944 21.9999 14.6509 21.9999 11.9987C21.9999 10.6855 21.7413 9.38514 21.2387 8.17188C20.7362 6.95863 19.9996 5.85624 19.071 4.92765C18.1424 3.99906 17.04 3.26247 15.8268 2.75992C14.6135 2.25738 13.3132 1.99872 11.9999 1.99872V1.99872ZM12.9999 6.99872H10.9999V10.9987H6.99994V12.9987H10.9999V16.9987H12.9999V12.9987H16.9999V10.9987H12.9999V6.99872Z" fill="white"/>
</svg>
