<svg width="21" height="20" viewBox="0 0 21 20" fill="none" xmlns="http://www.w3.org/2000/svg">
<path d="M17.6523 5.7364L17.6521 5.73625L17.647 5.742L16.3282 7.21596L13.3635 4.25124L14.7653 2.84941C15.0444 2.5703 15.4565 2.5703 15.7356 2.84941L17.6523 4.76608C17.9314 5.04519 17.9314 5.45729 17.6523 5.7364ZM4.80595 4.16791V1.80674H6.19495V4.16791V4.30674H6.33378H8.69495V5.69574H6.33378H6.19495V5.83457V8.19574H4.80595V5.83457V5.69574H4.66711H2.30595V4.30674H4.66711H4.80595V4.16791ZM6.10924 17.3624H3.13928V14.3921L12.2491 5.28223L15.1392 8.25038L6.10924 17.3624Z" fill="white" stroke="white" stroke-width="0.277671"/>
</svg>
